HIERARCHY
ROOT Hips
{
	OFFSET 0.000000 97.167313 0.000000
	CHANNELS 6 Xposition Yposition Zposition Xrotation Yrotation Zrotation
	JOINT Spine
	{
		OFFSET 0.000000 13.784798 0.064400
		CHANNELS 3 Xrotation Yrotation Zrotation
		JOINT Spine1
		{
			OFFSET 0.000000 12.037903 0.404700
			CHANNELS 3 Xrotation Yrotation Zrotation
			JOINT Spine2
			{
				OFFSET 0.000000 17.795601 0.420200
				CHANNELS 3 Xrotation Yrotation Zrotation
				JOINT Neck
				{
					OFFSET 0.000000 39.131302 11.954600
					CHANNELS 3 Xrotation Yrotation Zrotation
					JOINT Head
					{
						OFFSET 0.000000 14.456192 15.627699
						CHANNELS 3 Xrotation Yrotation Zrotation
						JOINT HeadTop_End
						{
							OFFSET 0.000000 15.703506 7.603401
							CHANNELS 3 Xrotation Yrotation Zrotation
							End Site
							{
								OFFSET 0.000000 17.447403 0.000000
							}
						}
					}
				}
				JOINT LeftShoulder
				{
					OFFSET 17.399500 24.608795 1.168800
					CHANNELS 3 Xrotation Yrotation Zrotation
					JOINT LeftArm
					{
						OFFSET 18.980635 5.765305 1.818600
						CHANNELS 3 Xrotation Yrotation Zrotation
						JOINT LeftForeArm
						{
							OFFSET 49.290169 0.000000 0.000000
							CHANNELS 3 Xrotation Yrotation Zrotation
							JOINT LeftHand
							{
								OFFSET 31.562012 0.000000 0.000000
								CHANNELS 3 Xrotation Yrotation Zrotation
								JOINT LeftHandThumb1
								{
									OFFSET 6.133995 -4.388519 7.076070
									CHANNELS 3 Xrotation Yrotation Zrotation
									JOINT LeftHandThumb2
									{
										OFFSET 6.037666 -3.485840 3.485847
										CHANNELS 3 Xrotation Yrotation Zrotation
										JOINT LeftHandThumb3
										{
											OFFSET 6.496506 -3.750763 3.750761
											CHANNELS 3 Xrotation Yrotation Zrotation
											JOINT LeftHandThumb4
											{
												OFFSET 5.616882 -3.242905 3.242910
												CHANNELS 3 Xrotation Yrotation Zrotation
												End Site
												{
													OFFSET -1.254608 7.132141 0.375429
												}
											}
										}
									}
								}
								JOINT LeftHandPinky1
								{
									OFFSET 18.920792 -0.453171 -11.426712
									CHANNELS 3 Xrotation Yrotation Zrotation
									JOINT LeftHandPinky2
									{
										OFFSET 4.919586 0.000000 0.000000
										CHANNELS 3 Xrotation Yrotation Zrotation
										JOINT LeftHandPinky3
										{
											OFFSET 5.233047 0.000000 0.000000
											CHANNELS 3 Xrotation Yrotation Zrotation
											JOINT LeftHandPinky4
											{
												OFFSET 5.571716 0.000000 0.000000
												CHANNELS 3 Xrotation Yrotation Zrotation
												End Site
												{
													OFFSET -3.459808 4.342407 -0.466164
												}
											}
										}
									}
								}
								JOINT LeftHandRing1
								{
									OFFSET 22.726120 -0.094986 -6.500475
									CHANNELS 3 Xrotation Yrotation Zrotation
									JOINT LeftHandRing2
									{
										OFFSET 6.408615 0.000000 0.000000
										CHANNELS 3 Xrotation Yrotation Zrotation
										JOINT LeftHandRing3
										{
											OFFSET 6.150223 0.000000 0.000000
											CHANNELS 3 Xrotation Yrotation Zrotation
											JOINT LeftHandRing4
											{
												OFFSET 6.145386 0.000000 0.000000
												CHANNELS 3 Xrotation Yrotation Zrotation
												End Site
												{
													OFFSET -3.671402 4.923981 -0.202372
												}
											}
										}
									}
								}
								JOINT LeftHandMiddle1
								{
									OFFSET 23.373947 0.000000 0.000001
									CHANNELS 3 Xrotation Yrotation Zrotation
									JOINT LeftHandMiddle2
									{
										OFFSET 6.996567 0.000000 0.000000
										CHANNELS 3 Xrotation Yrotation Zrotation
										JOINT LeftHandMiddle3
										{
											OFFSET 7.015945 0.000000 0.000000
											CHANNELS 3 Xrotation Yrotation Zrotation
											JOINT LeftHandMiddle4
											{
												OFFSET 7.721573 0.000000 0.000000
												CHANNELS 3 Xrotation Yrotation Zrotation
												End Site
												{
													OFFSET -4.651108 6.158463 0.251582
												}
											}
										}
									}
								}
								JOINT LeftHandIndex1
								{
									OFFSET 21.310577 -0.490082 6.209344
									CHANNELS 3 Xrotation Yrotation Zrotation
									JOINT LeftHandIndex2
									{
										OFFSET 7.536453 0.000000 0.000000
										CHANNELS 3 Xrotation Yrotation Zrotation
										JOINT LeftHandIndex3
										{
											OFFSET 7.512344 0.000000 0.000000
											CHANNELS 3 Xrotation Yrotation Zrotation
											JOINT LeftHandIndex4
											{
												OFFSET 10.212402 0.000000 0.000001
												CHANNELS 3 Xrotation Yrotation Zrotation
												End Site
												{
													OFFSET -5.180801 8.690506 1.388433
												}
											}
										}
									}
								}
							}
						}
					}
				}
				JOINT RightShoulder
				{
					OFFSET -17.399500 24.608795 1.168800
					CHANNELS 3 Xrotation Yrotation Zrotation
					JOINT RightArm
					{
						OFFSET -18.980635 5.765305 1.818600
						CHANNELS 3 Xrotation Yrotation Zrotation
						JOINT RightForeArm
						{
							OFFSET -49.290169 0.000000 0.000000
							CHANNELS 3 Xrotation Yrotation Zrotation
							JOINT RightHand
							{
								OFFSET -31.562012 0.000000 0.000000
								CHANNELS 3 Xrotation Yrotation Zrotation
								JOINT RightHandThumb1
								{
									OFFSET -6.133995 -4.388519 7.076070
									CHANNELS 3 Xrotation Yrotation Zrotation
									JOINT RightHandThumb2
									{
										OFFSET -6.037666 -3.485840 3.485847
										CHANNELS 3 Xrotation Yrotation Zrotation
										JOINT RightHandThumb3
										{
											OFFSET -6.496506 -3.750763 3.750761
											CHANNELS 3 Xrotation Yrotation Zrotation
											JOINT RightHandThumb4
											{
												OFFSET -5.616882 -3.242905 3.242910
												CHANNELS 3 Xrotation Yrotation Zrotation
												End Site
												{
													OFFSET 1.254608 7.132141 0.375429
												}
											}
										}
									}
								}
								JOINT RightHandIndex1
								{
									OFFSET -21.310577 -0.490082 6.209344
									CHANNELS 3 Xrotation Yrotation Zrotation
									JOINT RightHandIndex2
									{
										OFFSET -7.536453 0.000000 0.000000
										CHANNELS 3 Xrotation Yrotation Zrotation
										JOINT RightHandIndex3
										{
											OFFSET -7.512344 0.000000 0.000000
											CHANNELS 3 Xrotation Yrotation Zrotation
											JOINT RightHandIndex4
											{
												OFFSET -10.212402 0.000000 0.000001
												CHANNELS 3 Xrotation Yrotation Zrotation
												End Site
												{
													OFFSET 5.180801 8.690506 1.388433
												}
											}
										}
									}
								}
								JOINT RightHandMiddle1
								{
									OFFSET -23.373947 0.000000 0.000001
									CHANNELS 3 Xrotation Yrotation Zrotation
									JOINT RightHandMiddle2
									{
										OFFSET -6.996567 0.000000 0.000000
										CHANNELS 3 Xrotation Yrotation Zrotation
										JOINT RightHandMiddle3
										{
											OFFSET -7.015945 0.000000 0.000000
											CHANNELS 3 Xrotation Yrotation Zrotation
											JOINT RightHandMiddle4
											{
												OFFSET -7.721573 0.000000 0.000000
												CHANNELS 3 Xrotation Yrotation Zrotation
												End Site
												{
													OFFSET 4.651108 6.158463 0.251582
												}
											}
										}
									}
								}
								JOINT RightHandRing1
								{
									OFFSET -22.726120 -0.094986 -6.500475
									CHANNELS 3 Xrotation Yrotation Zrotation
									JOINT RightHandRing2
									{
										OFFSET -6.408615 0.000000 0.000000
										CHANNELS 3 Xrotation Yrotation Zrotation
										JOINT RightHandRing3
										{
											OFFSET -6.150223 0.000000 0.000000
											CHANNELS 3 Xrotation Yrotation Zrotation
											JOINT RightHandRing4
											{
												OFFSET -6.145386 0.000000 0.000000
												CHANNELS 3 Xrotation Yrotation Zrotation
												End Site
												{
													OFFSET 3.671402 4.923981 -0.202372
												}
											}
										}
									}
								}
								JOINT RightHandPinky1
								{
									OFFSET -18.920792 -0.453171 -11.426712
									CHANNELS 3 Xrotation Yrotation Zrotation
									JOINT RightHandPinky2
									{
										OFFSET -4.919586 0.000000 0.000000
										CHANNELS 3 Xrotation Yrotation Zrotation
										JOINT RightHandPinky3
										{
											OFFSET -5.233047 0.000000 0.000000
											CHANNELS 3 Xrotation Yrotation Zrotation
											JOINT RightHandPinky4
											{
												OFFSET -5.571716 0.000000 0.000000
												CHANNELS 3 Xrotation Yrotation Zrotation
												End Site
												{
													OFFSET 3.459808 4.342407 -0.466164
												}
											}
										}
									}
								}
							}
						}
					}
				}
			}
		}
	}
	JOINT LeftUpLeg
	{
		OFFSET 19.899099 -7.885101 -3.429500
		CHANNELS 3 Xrotation Yrotation Zrotation
		JOINT LeftLeg
		{
			OFFSET 1.745560 -36.997807 10.304700
			CHANNELS 3 Xrotation Yrotation Zrotation
			JOINT LeftFoot
			{
				OFFSET -1.745558 -29.803308 -13.615400
				CHANNELS 3 Xrotation Yrotation Zrotation
				JOINT LeftToeBase
				{
					OFFSET 1.181900 -18.539904 15.226099
					CHANNELS 3 Xrotation Yrotation Zrotation
					JOINT LeftToe_End
					{
						OFFSET -0.863701 1.402801 16.534700
						CHANNELS 3 Xrotation Yrotation Zrotation
						End Site
						{
							OFFSET 0.000000 16.616566 0.000000
						}
					}
				}
			}
		}
	}
	JOINT RightUpLeg
	{
		OFFSET -19.899099 -7.885101 -3.429500
		CHANNELS 3 Xrotation Yrotation Zrotation
		JOINT RightLeg
		{
			OFFSET -1.745560 -36.997807 10.304700
			CHANNELS 3 Xrotation Yrotation Zrotation
			JOINT RightFoot
			{
				OFFSET 1.745558 -29.803308 -13.615400
				CHANNELS 3 Xrotation Yrotation Zrotation
				JOINT RightToeBase
				{
					OFFSET -1.181900 -18.539904 15.226099
					CHANNELS 3 Xrotation Yrotation Zrotation
					JOINT RightToe_End
					{
						OFFSET 0.863701 1.402801 16.534700
						CHANNELS 3 Xrotation Yrotation Zrotation
						End Site
						{
							OFFSET 0.000000 16.616566 0.000000
						}
					}
				}
			}
		}
	}
}
MOTION
Frames: 6
Frame Time: 0.033333
-66.247009 77.555382 254.967438 0.485953 -42.187391 -2.867214 14.295763 -0.611291 -0.604584 1.987792 -0.231795 -0.293849 1.988521 -0.226219 -0.291488 2.378913 -0.035129 -0.395336 16.963562 -1.460324 -3.595614 0.000002 0.000000 0.000001 0.631463 1.615536 -10.659836 8.966211 -3.207957 -47.124477 0.000002 -69.605426 -0.000029 28.507082 3.924714 12.548838 6.861086 -5.002223 8.590387 13.294073 25.916627 -4.259462 -7.002776 16.009021 11.070830 0.000002 -0.000001 0.000000 5.328661 8.398384 -68.618300 4.548637 5.704756 -77.116729 2.697162 4.930772 -57.337088 0.000000 0.000001 -0.000004 5.885022 8.425534 -73.920808 4.976305 5.785515 -81.386963 3.221189 5.228550 -63.250209 -0.000000 -0.000001 0.000005 5.936606 8.519622 -71.539449 4.971880 5.784856 -81.343120 1.930018 4.346256 -47.872260 -0.000003 -0.000000 0.000004 3.109526 7.544752 -53.945801 4.346749 5.655029 -75.076907 1.780583 4.206630 -45.868504 -0.000001 0.000003 0.000001 0.662908 0.912369 13.253478 13.111588 -0.791645 56.879135 0.000106 83.026297 -0.000085 23.215279 -6.598990 -1.105576 8.236769 10.771789 -10.996540 8.982352 -34.992452 4.203185 -4.190380 2.363027 -9.063196 -0.000000 -0.000000 -0.000002 0.203489 -3.475247 14.899527 0.187700 -1.310158 16.304983 0.199083 -1.348493 16.796280 -0.000001 -0.000001 -0.000001 0.416134 -4.096658 23.101969 0.423187 -1.941514 24.590301 0.511728 -2.124256 27.086155 -0.000000 0.000000 -0.000004 0.979672 -5.152809 29.452086 0.542903 -2.184075 27.915139 0.640360 -2.358721 30.373988 -0.000001 -0.000000 -0.000003 0.551008 -4.398387 27.187640 0.425627 -1.946848 24.662439 0.442486 -1.983120 25.154006 0.000001 0.000002 0.000001 -57.453229 3.569373 15.367456 64.635562 -7.066183 -3.744637 2.846267 -25.755894 2.354748 -2.324837 -0.000026 -0.000004 -0.000000 0.000000 -0.000000 -31.964192 1.921059 -17.299667 49.535418 11.003577 -3.444129 -15.640510 5.580840 15.612583 -7.691583 -0.000035 -0.000002 -0.000000 0.000001 -0.000000 
-67.509766 79.018250 255.900208 1.181170 -45.167826 -2.514129 14.653908 -0.011388 -1.359627 2.212312 0.010515 -0.351146 2.212213 0.014570 -0.354428 2.681791 -0.022388 -0.346719 16.308724 -0.489691 -4.252713 -0.000000 -0.000001 0.000002 0.640170 1.123272 -10.918973 9.695988 -4.122119 -47.294644 0.000043 -70.262299 0.000021 28.775580 4.982415 13.156516 6.691959 -4.848654 8.464158 13.464813 25.615496 -4.228083 -7.257751 16.048998 11.094474 0.000000 -0.000001 0.000001 5.428106 8.425992 -68.960049 4.625953 5.721803 -77.893342 2.702176 4.933948 -57.395452 -0.000000 0.000000 -0.000002 5.985963 8.453431 -73.953552 5.017862 5.791628 -81.799029 3.189475 5.212529 -62.901568 -0.000000 -0.000001 0.000005 6.020025 8.542717 -71.662789 5.018985 5.791782 -81.810312 1.865996 4.287672 -47.021877 0.000000 0.000000 0.000002 3.139375 7.565205 -54.010076 4.429911 5.676432 -75.919479 1.765745 4.192228 -45.665955 -0.000000 0.000003 0.000001 0.648698 1.595560 13.179686 11.643604 3.603274 57.067077 -0.002511 89.405066 0.002471 27.084854 -5.746972 -2.052589 8.236759 10.769964 -10.996838 8.976792 -34.987337 4.204694 -4.168935 2.446873 -9.102988 -0.000000 -0.000001 0.000001 0.196220 -3.447592 14.667370 0.176693 -1.271969 15.816975 0.205727 -1.370283 17.075965 -0.000001 -0.000003 -0.000001 0.395714 -4.048035 22.746408 0.407424 -1.906701 24.120733 0.523341 -2.146792 27.397849 -0.000000 0.000000 -0.000008 0.956223 -5.117733 29.173500 0.527321 -2.154433 27.503712 0.655668 -2.384631 30.743829 -0.000001 -0.000004 -0.000005 0.528212 -4.353449 26.861481 0.409937 -1.912336 24.196522 0.453007 -2.005348 25.456236 0.000003 0.000001 -0.000001 -55.232738 3.325563 15.546930 53.919125 -5.927874 -3.407103 8.841545 -27.110600 1.380587 -3.303851 0.000003 0.000002 -0.000000 -0.000000 -0.000000 -35.760883 3.320420 -16.227283 46.902629 9.455777 -3.584322 -1.078660 10.334179 18.933872 -15.144220 0.051616 -0.749125 0.000000 0.000003 0.000000 
-68.892998 80.173813 256.407715 1.433928 -49.179230 -2.954056 14.962112 -0.541320 -1.777131 2.552634 0.016308 -0.267991 2.552260 0.019356 -0.270014 3.226043 0.173327 -0.311768 15.960417 2.435696 -6.116932 -0.000000 0.000001 0.000001 0.663687 0.900778 -11.627464 10.304406 -5.125918 -47.326838 0.000037 -71.053160 0.000018 29.643301 5.474328 12.943086 6.514660 -4.706660 8.343733 13.625329 25.333129 -4.198326 -7.517474 16.061268 11.119992 -0.000000 0.000001 0.000000 5.519772 8.451539 -69.241856 4.695279 5.736146 -78.587924 2.702734 4.934329 -57.401948 -0.000001 -0.000004 0.000003 6.077370 8.480598 -73.922249 5.051733 5.796373 -82.134582 3.153108 5.193835 -62.500814 -0.000003 -0.000000 0.000007 6.092957 8.564519 -71.719814 5.057948 5.797237 -82.196149 1.801245 4.226539 -46.149655 -0.000000 -0.000000 0.000004 3.163313 7.582241 -54.020905 4.504791 5.694607 -76.675205 1.748651 4.175486 -45.431676 -0.000001 0.000001 0.000001 0.624525 2.714573 13.817112 10.817224 9.034118 55.186163 0.000769 95.057840 -0.000714 29.289320 -4.970245 -2.801571 8.236764 10.768095 -10.997194 8.974238 -34.986012 4.205725 -4.126983 2.472174 -9.173475 -0.000001 -0.000001 -0.000001 0.190048 -3.423633 14.492900 0.166800 -1.236518 15.364654 0.214945 -1.399924 17.457270 0.000002 0.000002 0.000001 0.376056 -4.000133 22.427937 0.392830 -1.873783 23.678381 0.538657 -2.176060 27.803788 0.000001 0.000000 -0.000001 0.933985 -5.083384 28.930950 0.512866 -2.126462 27.116708 0.674994 -2.416798 31.205147 -0.000000 -0.000001 -0.000005 0.505880 -4.308544 26.563577 0.395059 -1.878869 23.746766 0.466548 -2.033543 25.840530 0.000002 0.000003 0.000006 -51.655402 3.570438 16.876171 48.122559 -7.107545 -2.965183 7.033706 -26.551244 1.136159 -3.383578 0.000027 0.000001 -0.000000 -0.000002 0.000000 -42.031055 5.525750 -12.953821 47.115854 10.165764 -4.070226 13.244715 13.979767 20.909222 -19.880751 0.726476 -4.288023 0.000000 -0.000003 0.000000 
-69.935326 80.113327 256.926971 1.567830 -53.422898 -4.062734 15.653451 -1.668590 -1.437494 2.855915 -0.185650 -0.128564 2.856088 -0.180696 -0.123651 3.504482 0.527378 -0.398767 15.744479 6.553561 -8.901074 -0.000002 0.000002 -0.000002 0.687868 0.931824 -12.271608 9.299748 -5.824840 -47.146709 -0.000032 -70.860098 -0.000047 30.563351 5.178454 11.845204 6.329010 -4.577551 8.229663 13.774697 25.071678 -4.170668 -7.781665 16.045154 11.146956 0.000002 -0.000001 -0.000002 5.603003 8.475303 -69.460654 4.756027 5.748017 -79.195039 2.698669 4.931731 -57.354594 0.000000 0.000002 -0.000002 6.158430 8.507230 -73.824714 5.077538 5.799870 -82.389949 3.112150 5.172392 -62.047207 -0.000001 0.000003 0.000002 6.154697 8.585245 -71.708223 5.088307 5.801309 -82.496493 1.736030 4.163058 -45.258036 -0.000002 0.000002 0.000004 3.180994 7.595788 -53.976342 4.570681 5.709732 -77.338464 1.729337 4.156446 -45.165876 0.000002 0.000001 0.000001 0.563459 4.036981 14.325632 9.850149 14.599852 52.747847 -0.000114 97.341363 0.000123 29.075480 -4.339509 -3.516583 8.236799 10.766283 -10.997780 8.973603 -34.987528 4.206498 -4.066601 2.442509 -9.272154 -0.000001 0.000000 -0.000001 0.184880 -3.403311 14.373008 0.157957 -1.203859 14.949204 0.226604 -1.436467 17.928367 -0.000003 -0.000003 -0.000002 0.357251 -3.953303 22.146082 0.379421 -1.842895 23.264692 0.557351 -2.211136 28.292293 0.000001 0.000000 -0.000008 0.912958 -5.049951 28.723773 0.499562 -2.100280 26.755702 0.697994 -2.454323 31.746415 0.000000 -0.000002 -0.000007 0.484141 -4.264063 26.294149 0.381058 -1.846699 23.315689 0.482856 -2.066880 26.296517 -0.000001 0.000003 -0.000001 -48.840944 3.773901 20.057033 49.903828 -9.057743 -3.208630 -1.882671 -23.743423 0.977260 -2.881315 0.000014 0.000001 0.000000 -0.000001 -0.000000 -50.679666 8.885963 -9.186213 54.934098 8.306469 -3.853946 17.877127 12.447182 19.294741 -5.787549 0.009989 -1.014703 -0.000001 -0.000004 0.000002 
-70.257111 79.443428 257.907440 2.286418 -56.939595 -4.433701 16.836249 -2.942272 -0.888821 3.025275 -0.462459 -0.071430 3.026517 -0.452007 -0.058407 3.252176 0.941392 -0.611959 15.378074 10.630324 -11.690533 0.000002 -0.000001 0.000000 0.691581 0.900260 -12.402388 5.988596 -6.435275 -46.590380 0.000009 -68.832918 -0.000010 30.841685 4.290619 10.388870 6.134799 -4.462694 8.122528 13.911948 24.833449 -4.145589 -8.049996 15.999867 11.174647 -0.000000 0.000000 0.000002 5.677163 8.497452 -69.613295 4.807580 5.757590 -79.709189 2.689793 4.926038 -57.251243 0.000001 0.000001 -0.000000 6.228354 8.533478 -73.658666 5.094860 5.802153 -82.561284 3.066518 5.148022 -61.540039 0.000004 0.000001 0.000005 6.204549 8.605006 -71.625523 5.109599 5.804051 -82.707225 1.670576 4.097380 -44.349392 -0.000002 0.000000 0.000004 3.192093 7.605733 -53.874558 4.626961 5.722026 -77.903615 1.707862 4.135043 -44.868708 -0.000001 -0.000000 -0.000001 0.512400 5.163343 14.096796 7.772917 18.913759 51.801183 0.000915 95.506112 -0.000861 27.298646 -3.759182 -4.165813 8.236877 10.764395 -10.998577 8.972996 -34.988283 4.207258 -3.991659 2.364082 -9.395340 -0.000001 0.000002 0.000003 0.180569 -3.386274 14.301326 0.150058 -1.173878 14.568648 0.240485 -1.478677 18.474275 -0.000000 0.000002 0.000002 0.339279 -3.907720 21.897344 0.367083 -1.813965 22.878084 0.579003 -2.250866 28.848547 0.000001 0.000004 -0.000003 0.893120 -5.017556 28.548256 0.487297 -2.075809 26.419313 0.724187 -2.496114 32.352902 -0.000001 0.000001 -0.000003 0.463067 -4.220238 26.050753 0.367878 -1.815847 22.903318 0.501578 -2.104314 26.811165 0.000001 0.000000 -0.000003 -48.133699 4.243941 22.527547 53.352643 -10.685341 -3.840356 -7.575074 -20.580827 1.988944 -2.516578 -0.000011 0.000001 -0.000000 -0.000001 -0.000000 -62.085327 11.965221 -5.067943 67.058510 3.580816 -2.541759 16.268283 7.724203 10.648202 -1.971431 0.000001 -0.000002 -0.000001 -0.000002 -0.000001 
-70.070702 78.716637 259.397797 4.120251 -59.369493 -3.159240 18.056370 -3.902581 -0.702983 3.079943 -0.657000 -0.156851 3.082364 -0.639480 -0.139264 2.670311 1.288524 -0.841376 14.834418 13.706555 -13.702580 -0.000001 0.000003 0.000001 0.667072 0.458093 -12.047093 1.188334 -7.612290 -45.383974 0.000057 -64.877645 0.000036 30.497102 3.164555 9.304704 5.931811 -4.363461 8.022893 14.036070 24.620667 -4.123531 -8.322121 15.924702 11.202292 0.000002 0.000001 0.000000 5.741575 8.518193 -69.696589 4.849291 5.764950 -80.124813 2.675941 4.917130 -57.089829 0.000004 0.000001 0.000001 6.286319 8.559405 -73.421733 5.103291 5.803245 -82.644770 3.016265 5.120566 -60.978501 -0.000002 -0.000003 0.000005 6.241781 8.623846 -71.469187 5.121445 5.805554 -82.824185 1.605160 4.029500 -43.426145 0.000001 -0.000001 0.000004 3.196298 7.611906 -53.713619 4.673009 5.731636 -78.364973 1.684250 4.111245 -44.540371 0.000001 0.000003 0.000002 0.509608 5.743508 13.444736 4.623494 20.955669 52.724870 -0.008479 90.740730 0.008869 25.378999 -3.059971 -4.434920 8.236983 10.762344 -10.999531 8.971919 -34.987494 4.208016 -3.904328 2.240448 -9.539694 -0.000000 -0.000001 0.000002 0.177069 -3.372456 14.274788 0.143088 -1.146742 14.224412 0.256445 -1.525588 19.082807 -0.000002 -0.000003 0.000001 0.322231 -3.863753 21.681445 0.355825 -1.787110 22.520378 0.603271 -2.294344 29.460385 -0.000001 0.000000 -0.000008 0.874572 -4.986502 28.403905 0.476132 -2.053188 26.109400 0.753180 -2.541282 33.012620 0.000001 0.000001 -0.000003 0.442789 -4.177473 25.833824 0.355600 -1.786527 22.512541 0.522438 -2.145050 27.373651 -0.000000 0.000001 0.000006 -48.611942 4.838355 22.971383 56.288607 -10.765495 -4.215965 -10.591322 -19.070902 3.338421 -2.510134 0.000002 -0.000001 -0.000000 0.000001 0.000000 -73.983680 13.073523 -1.232607 76.617203 -0.577694 -0.646326 12.458636 4.313325 1.546045 -2.934467 0.000025 -0.000002 -0.000001 -0.000003 -0.000002 
